<svg viewBox="0 0 1024 1024" xmlns="http://www.w3.org/2000/svg" xmlns:xlink="http://www.w3.org/1999/xlink">
 <defs>
  <filter color-interpolation-filters="sRGB" id="filter8114">
   <feGaussianBlur stdDeviation="1.01316" id="feGaussianBlur8116"/>
  </filter>
  <filter color-interpolation-filters="sRGB" id="filter8074">
   <feGaussianBlur stdDeviation="2.02632" id="feGaussianBlur8076"/>
  </filter>
  <filter x="-0.07378" y="-0.14086" color-interpolation-filters="sRGB" width="1.1476" height="1.2817" id="filter7233">
   <feGaussianBlur stdDeviation="6.45614" id="feGaussianBlur7235"/>
  </filter>
  <mask maskUnits="userSpaceOnUse" id="mask7947">
   <path fill="#ffffff" d="m205,135l-45,10l-100,55l40,-5l0,100l105,-50l105,50.375l0,-100.38l35,0l-105,-50.38l-35,-9.62l0,0.005z" id="path7949"/>
  </mask>
  <filter color-interpolation-filters="sRGB" id="filter7251">
   <feGaussianBlur stdDeviation="2.24561" id="feGaussianBlur7253"/>
  </filter>
  <filter color-interpolation-filters="sRGB" id="filter3503">
   <feGaussianBlur stdDeviation="2.62954" id="feGaussianBlur3505"/>
  </filter>
  <filter color-interpolation-filters="sRGB" id="filter3361">
   <feGaussianBlur stdDeviation="1.86799" id="feGaussianBlur3363"/>
  </filter>
  <filter color-interpolation-filters="sRGB" id="filter6169">
   <feGaussianBlur stdDeviation="3.0125" id="feGaussianBlur6171"/>
  </filter>
  <filter x="-0.12514" y="-0.23874" color-interpolation-filters="sRGB" width="1.2503" height="1.4775" id="filter14465">
   <feGaussianBlur stdDeviation="3.23289" id="feGaussianBlur14467"/>
  </filter>
  <mask maskUnits="userSpaceOnUse" id="mask14451">
   <path fill="url(#linearGradient14455) #000000" filter="url(#filter14443)" d="m204,250l3,37l66,-19l-69,-18z" id="path14453"/>
  </mask>
  <filter x="-0.1151" y="-0.42404" color-interpolation-filters="sRGB" width="1.2302" height="1.8481" id="filter14443">
   <feGaussianBlur stdDeviation="3.35702" id="feGaussianBlur14445"/>
  </filter>
  <mask maskUnits="userSpaceOnUse" id="mask8359">
   <path fill="#ffffff" d="m100,847.35999l0,96.875c0.45119,4.0533 0.79854,3.649 3.2812,5l95.361,54.492c3.782,1.9859 7.7909,2.8376 12.51,0.13916l92.285,-52.405c6.3295,-3.5457 6.6848,-6.7851 6.5625,-10l0,-94.1l-105,50l-105,-50l0.0003,-0.00116z" id="path8361"/>
  </mask>
  <filter color-interpolation-filters="sRGB" id="filter7300">
   <feGaussianBlur stdDeviation="1.71429" id="feGaussianBlur7302"/>
  </filter>
  <filter color-interpolation-filters="sRGB" id="filter8178">
   <feGaussianBlur stdDeviation="3.63124" id="feGaussianBlur8180"/>
  </filter>
  <mask maskUnits="userSpaceOnUse" id="mask8351">
   <path fill="#ffffff" d="m100,195l0,96.875c0.45119,4.0533 0.79854,3.649 3.2812,5l95.361,54.492c3.782,1.9859 7.7909,2.8376 12.51,0.13916l92.285,-52.405c6.3295,-3.5457 6.6848,-6.7851 6.5625,-10l0,-94.1l-105,50l-105,-50l0.0003,-0.00116z" id="path8353"/>
  </mask>
  <filter color-interpolation-filters="sRGB" id="filter7863">
   <feGaussianBlur stdDeviation="0.95175" id="feGaussianBlur7865"/>
  </filter>
  <mask maskUnits="userSpaceOnUse" id="mask7935">
   <path fill="#ffffff" d="m255,294.62l-50,-49.62l105,-50l50,40l-105,59.615l0,0.005z" id="path7937"/>
  </mask>
  <filter color-interpolation-filters="sRGB" id="filter7881">
   <feGaussianBlur stdDeviation="1.35965" id="feGaussianBlur7883"/>
  </filter>
  <mask maskUnits="userSpaceOnUse" id="mask7941">
   <path fill="#ffffff" d="m160,300l45,-55l-105,-50l-45,45l105,60z" id="path7943"/>
  </mask>
  <radialGradient xlink:href="#linearGradient14419" r="54.5" gradientTransform="matrix(1 0 0 .58716 0 68.119)" cx="257.5" cy="165" gradientUnits="userSpaceOnUse" id="radialGradient7500"/>
  <linearGradient id="linearGradient14419">
   <stop stop-color="rgb(255, 255, 255)" offset="0" id="stop14421"/>
   <stop stop-opacity="0" stop-color="rgb(255, 255, 255)" offset="1" id="stop14423"/>
  </linearGradient>
  <linearGradient xlink:href="#linearGradient8046" x1="-0.00122" y1="0.93892" x2="0.00142" spreadMethod="repeat" y2="0.99126" id="linearGradient7502"/>
  <linearGradient id="linearGradient8046">
   <stop stop-color="rgb(210, 183, 123)" offset="0" id="stop8048"/>
   <stop stop-color="rgb(206, 180, 118)" offset="0.5" id="stop8050"/>
   <stop stop-color="rgb(146, 107, 50)" offset="1" id="stop8052"/>
  </linearGradient>
  <radialGradient xlink:href="#linearGradient14419" r="75" gradientTransform="matrix(0.6177300214767456,-0.3828001022338867,0.09216000139713287,0.14871996641159058,-142.87870407104492,818.4527587890625)" cx="116.36" cy="160.08" gradientUnits="userSpaceOnUse" id="radialGradient7504"/>
  <radialGradient xlink:href="#linearGradient14419" r="52.5" gradientTransform="matrix(1 0 0 .57143 0 70.714)" cx="152.5" cy="165" gradientUnits="userSpaceOnUse" id="radialGradient7506"/>
  <linearGradient xlink:href="#linearGradient8046" x1="0.89721" y1="0.9935" x2="0.89728" spreadMethod="repeat" y2="0.9515" id="linearGradient7508"/>
  <linearGradient xlink:href="#linearGradient8046" x1="0.61681" y1="0.43611" x2="0.35039" y2="-0.08166" id="linearGradient7510"/>
  <radialGradient xlink:href="#linearGradient7771" r="77.5" gradientTransform="matrix(0.6701800227165222,0.30379000306129456,-0.02863600291311741,0.06317199766635895,-114.71770477294922,709.7847290039062)" cx="259.51" cy="112.05" gradientUnits="userSpaceOnUse" id="radialGradient7512"/>
  <linearGradient id="linearGradient7771">
   <stop stop-color="rgb(255, 255, 255)" offset="0" id="stop7773"/>
   <stop stop-opacity="0" stop-color="rgb(255, 239, 133)" offset="1" id="stop7775"/>
  </linearGradient>
  <radialGradient xlink:href="#linearGradient7771" r="75" gradientTransform="matrix(0.629360020160675,-0.3633599877357483,0.024588005617260933,0.042588010430336,-133.41570281982422,833.1827392578125)" cx="116.36" cy="160.08" gradientUnits="userSpaceOnUse" id="radialGradient7514"/>
  <radialGradient xlink:href="#linearGradient6170" r="105" gradientTransform="matrix(1.9184000492095947,0,0,1.0048999786376953,-599.5794219970703,1255.20263671875)" cx="207.26" cy="183.8" gradientUnits="userSpaceOnUse" id="radialGradient7516"/>
  <linearGradient id="linearGradient6170">
   <stop stop-color="rgb(254, 253, 252)" offset="0" id="stop6172"/>
   <stop stop-color="rgb(219, 169, 50)" offset="1" id="stop6174"/>
  </linearGradient>
  <linearGradient xlink:href="#linearGradient4839" x1="0.52655" y1="1.17517" x2="1.03504" y2="1.065" id="linearGradient7520"/>
  <linearGradient id="linearGradient4839">
   <stop stop-color="rgb(248, 248, 248)" offset="0" id="stop4841"/>
   <stop stop-color="rgb(196, 196, 196)" offset="1" id="stop4843"/>
  </linearGradient>
  <linearGradient xlink:href="#linearGradient4839" x1="0.59467" y1="0.39052" x2="0.29554" y2="0.44508" id="linearGradient7522"/>
  <linearGradient xlink:href="#linearGradient4802" x1="0.72304" y1="0.39961" x2="0.13806" y2="0.52007" id="linearGradient7524"/>
  <linearGradient id="linearGradient4802">
   <stop stop-color="rgb(242, 242, 242)" offset="0" id="stop4806"/>
   <stop stop-color="rgb(166, 166, 166)" offset="1" id="stop4808"/>
  </linearGradient>
  <linearGradient xlink:href="#linearGradient4748" x1="0.28903" y1="0.78997" x2="0.85181" y2="0.61043" id="linearGradient7526"/>
  <linearGradient id="linearGradient4748">
   <stop stop-color="rgb(248, 248, 248)" offset="0" id="stop4750"/>
   <stop stop-color="rgb(196, 196, 196)" offset="0.8333" id="stop4798"/>
   <stop stop-color="rgb(155, 155, 155)" offset="1" id="stop4752"/>
  </linearGradient>
  <linearGradient xlink:href="#linearGradient4839" x1="0.68282" y1="0.45336" x2="-0.48561" y2="0.66784" id="linearGradient7528"/>
  <linearGradient x1="0.5326" y1="0.464" x2="0.6926" y2="0.82928" id="linearGradient7540">
   <stop stop-color="rgb(255, 127, 0)" offset="0" id="stop3369"/>
   <stop stop-color="rgb(230, 69, 0)" offset="1" id="stop3371"/>
  </linearGradient>
  <linearGradient x1="0.42396" y1="0.57589" x2="0.58536" y2="0.98565" id="linearGradient7542">
   <stop stop-opacity="0" stop-color="rgb(255, 255, 255)" offset="0" id="stop3459"/>
   <stop stop-color="rgb(255, 0, 0)" offset="1" id="stop3461"/>
  </linearGradient>
  <linearGradient xlink:href="#linearGradient3275" x1="-1.63784" y1="-0.86476" x2="-0.69257" y2="1.68394" id="linearGradient7544"/>
  <linearGradient id="linearGradient3275">
   <stop stop-color="rgb(255, 255, 255)" offset="0" id="stop3277"/>
   <stop stop-color="rgb(195, 195, 195)" offset="1" id="stop3279"/>
  </linearGradient>
  <linearGradient xlink:href="#linearGradient3275" x1="-0.19467" y1="0.20524" x2="0.3685" y2="0.9844" id="linearGradient7546"/>
  <linearGradient x1="0.38009" y1="0.31471" x2="0.57674" y2="0.90778" id="linearGradient7550">
   <stop stop-color="rgb(255, 255, 255)" offset="0" id="stop3429"/>
   <stop stop-opacity="0" stop-color="rgb(255, 255, 255)" offset="1" id="stop3431"/>
  </linearGradient>
  <radialGradient xlink:href="#linearGradient14419" r="92.5" gradientTransform="matrix(0.379040002822876,-0.379040002822876,0.8549799919128418,0.8549799919128418,1259.0654602050781,2093.30078125)" cx="289.43" cy="209.67" gradientUnits="userSpaceOnUse" id="radialGradient7552"/>
  <radialGradient xlink:href="#linearGradient14419" r="92.5" gradientTransform="matrix(-0.379040002822876,0.379040002822876,-0.8549799919128418,-0.8549799919128418,1678.8653869628906,2074.240966796875)" cx="289.43" cy="209.67" gradientUnits="userSpaceOnUse" id="radialGradient7554"/>
  <radialGradient r="68.844" gradientTransform="matrix(0,1.2109999656677246,-0.35911011695861816,0,1538.1654357910156,1842.447998046875)" cx="199.28" cy="192.84" gradientUnits="userSpaceOnUse" id="radialGradient7556">
   <stop stop-color="rgb(108, 108, 108)" offset="0" id="stop3275"/>
   <stop stop-color="rgb(62, 62, 62)" offset="1" id="stop3277-2"/>
  </radialGradient>
  <radialGradient r="53.688" gradientTransform="matrix(0,1.2522000074386597,-0.43588000535964966,0,1552.9653625488281,1834.23095703125)" cx="199.28" cy="192.84" gradientUnits="userSpaceOnUse" id="radialGradient7558">
   <stop stop-color="rgb(247, 247, 247)" offset="0" id="stop3265"/>
   <stop stop-color="rgb(225, 225, 225)" offset="1" id="stop3267"/>
  </radialGradient>
  <radialGradient xlink:href="#linearGradient6117" r="55" gradientTransform="matrix(1.7067999839782715,0,0,2.482599973678589,-302.41170501708984,206.79269409179688)" cx="195.54" cy="293.53" gradientUnits="userSpaceOnUse" id="radialGradient7560"/>
  <linearGradient id="linearGradient6117">
   <stop stop-color="rgb(237, 226, 202)" offset="0" id="stop6119"/>
   <stop stop-color="rgb(206, 180, 118)" offset="0.5" id="stop6139"/>
   <stop stop-color="rgb(146, 107, 50)" offset="1" id="stop6121"/>
  </linearGradient>
  <radialGradient xlink:href="#linearGradient6170" r="55" gradientTransform="matrix(1.7067999839782715,0,0,2.482599973678589,-302.41170501708984,859.1527099609375)" cx="177.48" cy="292.05" gradientUnits="userSpaceOnUse" id="radialGradient7564"/>
  <linearGradient xlink:href="#linearGradient14419" x1="0.27536" y1="0.85135" x2="0.08696" y2="-0.01351" id="linearGradient7566"/>
  <linearGradient x1="-0.04071" y1="0.50001" x2="1.04071" y2="0.50001" id="linearGradient7568">
   <stop stop-opacity="0.75285" stop-color="rgb(0, 0, 0)" offset="0" id="stop8190"/>
   <stop stop-color="rgb(255, 255, 255)" offset="1" id="stop8192"/>
  </linearGradient>
  <radialGradient xlink:href="#linearGradient6117" r="75" gradientTransform="matrix(1.7546000480651855,0.47016000747680664,-0.3291100859642029,1.2281999588012695,-221.143705368042,511.3827209472656)" cx="148.11" cy="254.41" gradientUnits="userSpaceOnUse" id="radialGradient7570"/>
  <linearGradient xlink:href="#linearGradient6117" x1="0.76187" y1="0.72716" x2="-1.45434" y2="-1.00481" id="linearGradient7572"/>
  <radialGradient xlink:href="#linearGradient7771" r="55.132" gradientTransform="matrix(1.9368 0 0 1.4626 -241.23 -101.78)" cx="257.5" cy="220" gradientUnits="userSpaceOnUse" id="radialGradient7574"/>
  <radialGradient xlink:href="#linearGradient7771" r="52.5" gradientTransform="matrix(2.0585 0 0 1.5293 -161.42 -116.44)" cx="152.5" cy="220" gradientUnits="userSpaceOnUse" id="radialGradient7576"/>
  <radialGradient xlink:href="#linearGradient7771" r="75" gradientTransform="matrix(1.0342999696731567,0.2771500051021576,-0.1939999908208847,0.7240299582481384,-145.54670333862305,649.5667114257812)" cx="138.82" cy="224.37" gradientUnits="userSpaceOnUse" id="radialGradient7578"/>
  <radialGradient xlink:href="#linearGradient7771" r="77.5" gradientTransform="matrix(1,0,0,0.6426798701286316,-204.4947052001953,716.4677124023438)" cx="251" cy="198.91" gradientUnits="userSpaceOnUse" id="radialGradient7582"/>
  <linearGradient xlink:href="#linearGradient8046" x1="1.00004" y1="0.5" x2="0.00003" y2="0.5" id="svg_1"/>
  <linearGradient x1="0.97581" y1="0.05102" x2="0.46774" y2="0.82653" id="svg_2">
   <stop stop-color="rgb(0, 0, 0)" offset="0" id="stop8146"/>
   <stop stop-opacity="0" stop-color="rgb(0, 0, 0)" offset="1" id="stop8148"/>
  </linearGradient>
 </defs>
 <g>
  <title>Layer 1</title>
  <g id="svg_15">
   <g id="svg_3" transform="matrix(0.40449 0 0 0.40449 588.995 587.007)">
    <path id="svg_4" d="m-922.38668,-46.97775c6.47,-6.41 15.64,-9.61 24.65,-9.83c9.95,-0.24 19.8,1.6 29.44,3.89c16.84,4.25 33.18,10.3 49.08,17.25c5.14,2.08 9.03,6.19 13.32,9.55c25.59,21.94 50.06,45.15 74.72,68.12c52.14,48.91 103.73,98.39 155.74,147.44c12.24,11.48 24.42,23.03 36.98,34.16c-17.28,3.68 -34.32,8.49 -50.99,14.33c-48.99,-45.83 -98.29,-91.34 -147.86,-136.56c-14.38,-13.04 -28.72,-26.12 -43.43,-38.79c-8.83,-7.83 -19.13,-13.7 -29.2,-19.75c-14.08,-8.15 -28.54,-15.75 -43.73,-21.62c-6.79,-2.51 -13.77,-4.74 -21.01,-5.42c-16.4,-0.47 -32.81,0.13 -49.18,1.25c-2.04,-12.47 -3.9,-24.98 -5.9,-37.46c-1.61,-9.3 0.55,-19.72 7.37,-26.56z"/>
    <path id="svg_5" d="m-809.30668,-36.11775c10.73,-4.67 22,-8.62 33.73,-9.63c6.01,-0.72 11.76,1.66 17.18,3.93c15.88,7.11 30.58,16.51 45.12,25.99c2.34,1.65 4.9,3.05 7,5.04c21.32,22.66 43.2,44.79 64.91,67.08c29.64,30.03 59.21,60.14 89.05,89.98c23.52,23.28 47.18,46.42 70.53,69.88c-16.72,0.29 -33.28,2.95 -49.69,5.9c-11.58,-9.49 -22.24,-20.12 -33.29,-30.24c-50.51,-47.53 -100.55,-95.55 -151.08,-143.06c-23.69,-22.3 -47.45,-44.55 -71.67,-66.28c-7.16,-6.32 -14.29,-12.68 -21.79,-18.59z"/>
    <path id="svg_6" d="m-699.49668,-11.88775c8.28,-0.81 16.77,-0.61 24.8,1.72c7.16,1.79 12.51,7.25 18.17,11.64c27.57,23.35 53.47,48.57 79.71,73.38c19.34,18.27 38.32,36.93 58.18,54.64c14.11,11.18 26.06,24.74 38.13,38.02c13.93,15.64 27.47,31.62 40.8,47.78c-11.54,-0.13 -23.16,0.85 -34.65,0.3c-29.37,-29.4 -59.16,-58.38 -88.52,-87.79c-39.48,-39.88 -78.97,-79.76 -118.01,-120.08c-6.21,-6.53 -12.59,-12.91 -18.61,-19.61z"/>
    <path id="svg_7" d="m-925.36668,22.84225c15.15,-1.4 30.39,-1.79 45.6,-1.66c9.45,-0.27 18.47,3.08 27.15,6.42c16.29,6.62 31.75,15.11 46.79,24.18c7.51,4.61 15.06,9.27 21.62,15.19c25,21.69 49.29,44.18 73.74,66.48c38.5,35.48 77.09,70.88 115.2,106.76c-14.92,5.43 -29.6,12.05 -42.59,21.27c-10.69,7.59 -18.55,19.26 -20.58,32.31c-2.64,16.16 1.53,32.49 6.81,47.69c3.24,8.7 6.06,17.77 11.68,25.3c7.98,10.86 18.29,19.79 29.14,27.68c16.43,11.83 34.35,21.55 53.09,29.18c10.93,4.34 22.19,8.13 33.86,9.83c22.29,2.29 44.71,2.99 67.08,4.14c90.34,3.72 180.72,6.14 271.1,8.54c38.63,0.94 77.25,2.01 115.88,2.78c20.17,0.77 40.37,0.59 60.52,1.61c0.02,-1.9 0.06,-3.79 0.08,-5.67c-69.95,-1.59 -139.91,-3.25 -209.8701,-5.1c-90.56,-2.56 -181.15,-4.85 -271.65,-9.31c-12.34,-0.98 -24.79,-1.12 -37.01,-3.25c-15.94,-3.34 -31.11,-9.6 -45.69,-16.73c-17.44,-8.82 -34.24,-19.25 -48.76,-32.41c-7.59,-7.18 -15.02,-15.03 -19.04,-24.83c-5.74,-14.33 -11.09,-29.09 -12.41,-44.58c-0.81,-10.82 1.28,-22.2 7.65,-31.17c6.46,-9.37 16.48,-15.35 26.32,-20.61c22.09,-11.32 45.89,-18.91 69.89,-25c23.91,-5.79 48.35,-10.14 73.01,-10.38c14.01,-0.2 28.02,-0.86 42.03,-0.88c17.41,7.01 36.43,8.07 54.96,8.94c10.69,0.08 21.4,0.19 32.07,-0.53c55.53,4.15 111.36,4.43 166.9,0.25c43.46,-3.51 86.89,-9.74 128.86,-21.83c16.95,-4.95 33.65,-10.87 49.72,-18.21c50.06,-22.01 99.89,-44.66 150.98,-64.19c41.46,-15.88 84.55,-27.56 128.45,-34.3c52.16,-8.17 105.1901,-11.24 157.9301,-8.13c65.88,4.02 131.96,18.11 191.1901,47.92c19.25,9.5 37.1599,21.37 55.22,32.91c33.0499,21.47 65.85,43.5 96.26,68.63c13.12,10.75 25.25,22.64 36.77,35.07c-91.38,126.91 -182.8201,253.78 -274.4301,380.52c-40.39,-13.42 -81.27,-25.65 -122.98,-34.28c-16.4601,-3.15 -33.12,-6.09 -49.9401,-5.64c-8.83,0.4 -17.35,2.99 -25.9199,4.92c-43.5,10.97 -86.66,23.19 -129.8501,35.26c-86.1399,24.21 -172.1099,49.03 -258.2299,73.34c-20.91,5.82 -41.77,11.82 -62.82,17.12c-26.59,6.0601 -53.86,10.8 -81.22,8.95c-15.73,-1.34 -31.8,-4.8 -45.16,-13.6c-21.56,-13.47 -42.41,-28.04 -63.3,-42.51c-62.63,-43.81 -124.47,-88.73 -185.9,-134.19c-34.02,-25.23 -67.9,-50.65 -101.45,-76.5c-27.93,-21.62 -55.89,-43.24 -82.58,-66.4c-15.31,-13.07 -28.1,-28.71 -41.26,-43.86c-38.43,-45.44 -75.4,-92.08 -111.81,-139.15c-24.86,-32.25 -49.41,-64.75 -73.18,-97.82c-15.19,-21.3 -30.37,-42.67 -43.84,-65.12c-3.9,-6.8 -8.1,-13.62 -10.08,-21.28c6.2,-9.57 14.32,-18 24,-24.07z"/>
    <path id="svg_8" d="m872.66332,265.19225c6.6899,-3.29 14.36,-4.53 21.73,-3.29c9.08,1.25 17.12,5.87 25.5,9.25c9.73,4.14 19.76,7.52 29.65,11.25c3.36,1.45 7.11,2.66 9.58,5.54c1.86,2.88 0.3101,6.32 -0.48,9.29c-2.99,8.27 -7.2,16.02 -10.89,23.97c-34.99,71.72 -71.4199,142.72 -108.6799,213.28c-20.5701,38.85 -41.52,77.49 -63.02,115.83c-18.7101,33.12 -37.73,66.08 -57.97,98.3c-11.77,18.59 -23.8,37.07 -37.2201,54.52c-6.1699,7.81 -12.4299,15.68 -20.0599,22.12c-2.5601,1.96 -5.23,4.17 -8.49,4.69c-2.0701,0.29 -3.0901,-1.77 -4.3401,-2.95c-24.23,-26.11 -48.99,-51.78 -71.62,-79.31c-8.5699,-10.59 -17.0499,-21.32 -24.0599,-33.03c-3.13,-5.39 -6.13,-10.99 -7.4,-17.14c1.9301,-2.58 3.76,-5.2401 5.7,-7.81l3.5,-4.86c97.04,-134.17 193.75,-268.59 290.65,-402.86c10.3199,-3.8 18.0998,-12.03 27.9199,-16.79z"/>
   </g>
   <g id="svg_9" transform="matrix(-0.40449 0 0 -0.40449 1207.36 487.479)">
    <path id="svg_10" d="m987.06668,77.83815c6.47,-6.41 15.64,-9.61 24.65,-9.83c9.95,-0.24 19.8,1.6 29.44,3.89c16.84,4.25 33.18,10.3 49.08,17.25c5.14,2.08 9.03,6.19 13.32,9.55c25.59,21.94 50.06,45.15 74.72,68.12c52.14,48.91 103.73,98.39 155.74,147.44c12.24,11.48 24.42,23.03 36.98,34.16c-17.28,3.68 -34.32,8.49 -50.99,14.33c-48.99,-45.83 -98.29,-91.34 -147.86,-136.56c-14.38,-13.04 -28.72,-26.12 -43.43,-38.79c-8.83,-7.83 -19.13,-13.7 -29.2,-19.75c-14.08,-8.15 -28.54,-15.75 -43.73,-21.62c-6.79,-2.51 -13.77,-4.74 -21.01,-5.42c-16.4,-0.47 -32.81,0.13 -49.18,1.25c-2.04,-12.47 -3.9,-24.98 -5.9,-37.46c-1.61,-9.3 0.55,-19.72 7.37,-26.56z"/>
    <path id="svg_11" d="m1100.14668,88.69815c10.73,-4.67 22,-8.62 33.73,-9.63c6.01,-0.72 11.76,1.66 17.18,3.93c15.88,7.11 30.58,16.51 45.12,25.99c2.34,1.65 4.9,3.05 7,5.04c21.32,22.66 43.2,44.79 64.91,67.08c29.64,30.03 59.21,60.14 89.05,89.98c23.52,23.28 47.18,46.42 70.53,69.88c-16.72,0.29 -33.28,2.95 -49.69,5.9c-11.58,-9.49 -22.24,-20.12 -33.29,-30.24c-50.51,-47.53 -100.55,-95.55 -151.08,-143.06c-23.69,-22.3 -47.45,-44.55 -71.67,-66.28c-7.16,-6.32 -14.29,-12.68 -21.79,-18.59z"/>
    <path id="svg_12" d="m1209.95668,112.92815c8.28,-0.81 16.77,-0.61 24.8,1.72c7.16,1.79 12.51,7.25 18.17,11.64c27.57,23.35 53.47,48.57 79.71,73.38c19.34,18.27 38.32,36.93 58.18,54.64c14.11,11.18 26.06,24.74 38.13,38.02c13.93,15.64 27.47,31.62 40.8,47.78c-11.54,-0.13 -23.16,0.85 -34.65,0.3c-29.37,-29.4 -59.16,-58.38 -88.52,-87.79c-39.48,-39.88 -78.97,-79.76 -118.01,-120.08c-6.21,-6.53 -12.59,-12.91 -18.61,-19.61z"/>
    <path id="svg_13" d="m984.08668,147.65815c15.15,-1.4 30.39,-1.79 45.6,-1.66c9.45,-0.27 18.47,3.08 27.15,6.42c16.29,6.62 31.75,15.11 46.79,24.18c7.51,4.61 15.06,9.27 21.62,15.19c25,21.69 49.29,44.18 73.74,66.48c38.5,35.48 77.09,70.88 115.2,106.76c-14.92,5.43 -29.6,12.05 -42.59,21.27c-10.69,7.59 -18.55,19.26 -20.58,32.31c-2.64,16.16 1.53,32.49 6.81,47.69c3.24,8.7 6.06,17.77 11.68,25.3c7.98,10.86 18.29,19.79 29.14,27.68c16.43,11.83 34.35,21.55 53.09,29.18c10.93,4.34 22.19,8.13 33.86,9.83c22.29,2.29 44.71,2.99 67.08,4.14c90.34,3.72 180.72,6.14 271.1,8.54c38.63,0.94 77.25,2.01 115.88,2.78c20.17,0.77 40.37,0.59 60.52,1.61c0.02,-1.9 0.06,-3.79 0.08,-5.67c-69.95,-1.59 -139.91,-3.25 -209.8701,-5.1c-90.56,-2.56 -181.15,-4.85 -271.65,-9.31c-12.34,-0.98 -24.79,-1.12 -37.01,-3.25c-15.94,-3.34 -31.11,-9.6 -45.69,-16.73c-17.44,-8.82 -34.24,-19.25 -48.76,-32.41c-7.59,-7.18 -15.02,-15.03 -19.04,-24.83c-5.74,-14.33 -11.09,-29.09 -12.41,-44.58c-0.81,-10.82 1.28,-22.2 7.65,-31.17c6.46,-9.37 16.48,-15.35 26.32,-20.61c22.09,-11.32 45.89,-18.91 69.89,-25c23.91,-5.79 48.35,-10.14 73.01,-10.38c14.01,-0.2 28.02,-0.86 42.03,-0.88c17.41,7.01 36.43,8.07 54.96,8.94c10.69,0.08 21.4,0.19 32.07,-0.53c55.53,4.15 111.36,4.43 166.9,0.25c43.46,-3.51 86.89,-9.74 128.86,-21.83c16.95,-4.95 33.65,-10.87 49.72,-18.21c50.06,-22.01 99.89,-44.66 150.98,-64.19c41.46,-15.88 84.55,-27.56 128.45,-34.3c52.16,-8.17 105.1901,-11.24 157.9301,-8.13c65.88,4.02 131.96,18.11 191.1901,47.92c19.25,9.5 37.1599,21.37 55.22,32.91c33.0499,21.47 65.85,43.5 96.26,68.63c13.12,10.75 25.25,22.64 36.77,35.07c-91.38,126.91 -182.8201,253.78 -274.4301,380.52c-40.39,-13.42 -81.27,-25.65 -122.98,-34.28c-16.4601,-3.15 -33.12,-6.09 -49.9401,-5.64c-8.83,0.4 -17.35,2.99 -25.9199,4.92c-43.5,10.97 -86.66,23.19 -129.8501,35.26c-86.1399,24.21 -172.1099,49.03 -258.2299,73.34c-20.91,5.82 -41.77,11.82 -62.82,17.12c-26.59,6.0601 -53.86,10.8 -81.22,8.95c-15.73,-1.34 -31.8,-4.8 -45.16,-13.6c-21.56,-13.47 -42.41,-28.04 -63.3,-42.51c-62.63,-43.81 -124.47,-88.73 -185.9,-134.19c-34.02,-25.23 -67.9,-50.65 -101.45,-76.5c-27.93,-21.62 -55.89,-43.24 -82.58,-66.4c-15.31,-13.07 -28.1,-28.71 -41.26,-43.86c-38.43,-45.44 -75.4,-92.08 -111.81,-139.15c-24.86,-32.25 -49.41,-64.75 -73.18,-97.82c-15.19,-21.3 -30.37,-42.67 -43.84,-65.12c-3.9,-6.8 -8.1,-13.62 -10.08,-21.28c6.2,-9.57 14.32,-18 24,-24.07z"/>
    <path id="svg_14" d="m2782.11668,390.00815c6.6899,-3.29 14.36,-4.53 21.73,-3.29c9.08,1.25 17.12,5.87 25.5,9.25c9.73,4.14 19.76,7.52 29.65,11.25c3.36,1.45 7.11,2.66 9.58,5.54c1.86,2.88 0.3101,6.32 -0.48,9.29c-2.99,8.27 -7.2,16.02 -10.89,23.97c-34.99,71.72 -71.4199,142.72 -108.6799,213.28c-20.5701,38.85 -41.52,77.49 -63.02,115.83c-18.7101,33.12 -37.73,66.08 -57.97,98.3c-11.77,18.59 -23.8,37.07 -37.2201,54.52c-6.1699,7.81 -12.4299,15.68 -20.0599,22.12c-2.5601,1.96 -5.23,4.17 -8.49,4.69c-2.0701,0.29 -3.0901,-1.77 -4.3401,-2.95c-24.23,-26.11 -48.99,-51.78 -71.62,-79.31c-8.5699,-10.59 -17.0499,-21.32 -24.0599,-33.03c-3.13,-5.39 -6.13,-10.99 -7.4,-17.14c1.9301,-2.58 3.76,-5.2401 5.7,-7.81l3.5,-4.86c97.04,-134.17 193.75,-268.59 290.65,-402.86c10.3199,-3.8 18.0998,-12.03 27.9199,-16.79z"/>
   </g>
   <g transform="matrix(1.44587 0 0 1.44587 -1681.12 -600.221)" id="layer1">
    <g id="g7412">
     <g transform="matrix(1.3061 0 0 1.3061 1520.1 -353.67)" id="g6901">
      <g id="g6903">
       <path fill="none" stroke-width="4" stroke="url(#radialGradient7500)" filter="url(#filter8114)" d="m105.50529,823.99271l-105,-60" id="path6905"/>
       <g id="g6907">
        <g id="g6909">
         <path fill="url(#linearGradient7502)" d="m-45.56611,776.85269l45,-10l-105,60l-37.429,4.3929l-1.5,-2.25l98.929,-52.14l0,-0.0029z" id="path6911"/>
         <path fill="url(#radialGradient7504)" stroke-width="4" stroke="url(#radialGradient7506)" filter="url(#filter8074)" d="m-104.49471,823.99271l105,-60" id="path6913"/>
        </g>
        <g id="g6915">
         <path fill="url(#linearGradient7508)" d="m34.43389,776.47269l-35,-9.62l105,60l35,0l1.0714,-2.8571l-106.07,-47.52l-0.0014,-0.0029z" id="path6917"/>
         <g id="g6919">
          <g id="g6921">
           <path fill="url(#linearGradient7510)" d="m0.50529,763.99271l-45,10l-100,55l40,-5l0.70711,99.204l104.29,-49.2l104.03,48.61l0.97,-98.61l35,0l-105,-50.38l-35,-9.62l0.00289,-0.004z" id="path6923"/>
           <path fill="url(#radialGradient7512)" d="m35.50529,773.61271l-35,-9.62l0.42071,45.98l80.36,27.378l24.22,-13.36l35,0l-105,-50.375l-0.00071,-0.003z" id="path6925"/>
          </g>
          <g id="g6927">
           <path fill="url(#radialGradient7514)" d="m-144.49471,828.99271l40,-5l30.834,11.796l67.917,-36.465l6.25,-35.34l-45,10l-100,55l-0.001,0.009z" id="path6929"/>
           <path fill="url(#radialGradient7516)" filter="url(#filter7233)" mask="url(#mask7947)" d="m0.50529,763.99271l-105,60l102.53,-51.523l2.8902,37.503l3.1428,13.006l-4.6859,16.794l1.13,34.22l0.61738,-33.368l6.4258,-15.943l-1.4029,-12.155l-1.1504,-36.651l100.51,48.12l-105,-60l-0.00698,-0.003z" id="path6931"/>
          </g>
         </g>
        </g>
       </g>
      </g>
      <path fill="url(#radialGradient7516)" filter="url(#filter7251)" d="m0.50529,763.99271l-105,60l102.53,-51.523l2.8902,37.503l3.1428,13.006l-4.6859,16.794l1.13,34.22l0.61738,-33.368l6.4258,-15.943l-1.4029,-12.155l-1.1504,-36.651l100.51,48.12l-105,-60l-0.00698,-0.003z" id="path6933"/>
     </g>
     <g id="g7325">
      <g id="g7069">
       <path fill="#333333" stroke-width="4.8996" stroke-miterlimit="20" stroke-linecap="round" stroke="#333333" stroke-linejoin="round" d="m1517.12545,636.99474l-68.75,42.094l-80.031,9.7188l19.906,57.188l0,-18.188l137.16,65.281l5.25,-2.5l32.938,-20.156c-15.5,-44.478 -31,-88.957 -46.5,-133.44l0.027,0.0022z" id="path7071"/>
       <path fill="#e6e6e6" d="m1491.92545,640.90099l-42.688,40.719l-58.719,-5.4062l-17.312,14.656c5.0127,14.396 10.019,28.791 15.031,43.188l0,-6.25l126.5,60.188l21.313,-20.312l22.7,0.72c-14.7,-42.252 -29.5,-84.498 -44.2,-126.75l-22.625,-0.75l0,-0.0028z" id="path7073"/>
       <path fill="#e6e6e6" d="m1491.92545,640.90099l-42.688,40.719l-58.719,-5.4062l-17.312,14.656c5.0127,14.396 10.019,28.791 15.031,43.188l0,-6.25l133.19,63.406l37.3,-22.81c-14.7,-42.252 -29.5,-84.498 -44.2,-126.75l-22.625,-0.75l0.023,-0.0028z" id="path7075"/>
       <path fill="#e6e6e6" d="m1491.92545,640.90099l-42.688,40.719l-58.719,-5.4062l-17.312,14.656c5.0127,14.396 10.019,28.791 15.031,43.188l0,-6.25l126.5,60.188l21.313,-20.312l22.7,0.72c-14.7,-42.252 -29.5,-84.498 -44.2,-126.75l-22.625,-0.75l0,-0.0028z" id="path7077"/>
       <path fill="url(#linearGradient7520)" d="m1390.52545,676.21299l-17.312,14.656c5.0127,14.396 10.019,28.791 15.031,43.188l0,-6.25l24.25,11.531l-21.969,-63.125z" id="path7079"/>
       <path fill="url(#linearGradient7522)" d="m1536.02545,767.671l22.649,0.72751c-14.712,-42.252 -29.424,-84.505 -44.136,-126.76l-22.649,-0.72753l44.136,126.76l0,0.00002z" id="path7081"/>
       <path fill="#e6e6e6" d="m1491.92545,640.90099s-15.862,7.6685 -26.531,17.844c-10.67,10.175 -16.156,22.875 -16.156,22.875s-12.193,-6.5269 -26.875,-7.875s-31.844,2.4688 -31.844,2.4688l21.969,63.156l97.031,46.156c10.67,-10.175 26.531,-17.844 26.531,-17.844l-44.1,-126.78l-0.025,-0.0008z" id="path7083"/>
       <path fill="url(#linearGradient7524)" d="m1491.92545,640.90099s-15.83,7.6685 -26.5,17.844c-10.67,10.175 -16.156,22.875 -16.156,22.875l31.375,90.156l28.906,13.75c10.67,-10.175 26.531,-17.844 26.531,-17.844l-44.1,-126.79l-0.056,0.009z" id="path7085"/>
       <path fill="url(#linearGradient7526)" d="m1414.02545,673.46299c-12.129,0.22517 -23.469,2.75 -23.469,2.75l21.969,63.156l68.125,32.406l-31.375,-90.156s-12.193,-6.5269 -26.875,-7.875c-2.7528,-0.25277 -5.5758,-0.33321 -8.375,-0.28125l0,0.00025z" id="path7087"/>
       <path fill="#b3b3b3" d="m1536.02545,767.68099s-1.0038,0.46554 -2.6563,1.3438c-1.6525,0.8782 -3.946,2.1551 -6.5937,3.75c-1.3241,0.79745 -2.738,1.6787 -4.1876,2.625c-1.4495,0.94636 -2.9444,1.9562 -4.4374,3.0312c-1.493,1.0751 -2.9832,2.2227 -4.4376,3.4062c-1.4544,1.1836 -2.8851,2.4156 -4.2187,3.6875l11.906,5.6875l37.281,-22.812l-22.656,-0.71875l0.0003,-0.00045z" id="path7089"/>
       <path fill="url(#linearGradient7528)" d="m1480.92545,635.58849s-18.582,6.3383 -26.5,17.844c-7.9182,11.505 -5.1562,28.188 -5.1563,28.188l31.375,90.156l17.844,8.5c0.021,-0.031 0.041,-0.0628 0.062,-0.0937c7.9182,-11.505 26.531,-17.844 26.531,-17.844l-44.156,-126.75l0.0003,-0.0003z" id="path7091"/>
       <g id="g7093">
        <path fill="#333333" stroke-width="4.8996" stroke-miterlimit="20" stroke-linecap="round" stroke="#333333" stroke-linejoin="round" d="m1517.12545,636.99474l-68.75,42.094l-80.031,9.7188l19.906,57.188l0,-18.188l137.16,65.281l5.25,-2.5l32.938,-20.156c-15.5,-44.478 -31,-88.957 -46.5,-133.44l0.027,0.0022z" id="path7095"/>
        <path fill="#e6e6e6" d="m1491.92545,640.90099l-42.688,40.719l-58.719,-5.4062l-17.312,14.656c5.0127,14.396 10.019,28.791 15.031,43.188l0,-6.25l126.5,60.188l21.313,-20.312l22.7,0.72c-14.7,-42.252 -29.5,-84.498 -44.2,-126.75l-22.625,-0.75l0,-0.0028z" id="path7097"/>
        <path fill="#e6e6e6" d="m1491.92545,640.90099l-42.688,40.719l-58.719,-5.4062l-17.312,14.656c5.0127,14.396 10.019,28.791 15.031,43.188l0,-6.25l133.19,63.406l37.3,-22.81c-14.7,-42.252 -29.5,-84.498 -44.2,-126.75l-22.625,-0.75l0.023,-0.0028z" id="path7099"/>
        <path fill="#e6e6e6" d="m1491.92545,640.90099l-42.688,40.719l-58.719,-5.4062l-17.312,14.656c5.0127,14.396 10.019,28.791 15.031,43.188l0,-6.25l126.5,60.188l21.313,-20.312l22.7,0.72c-14.7,-42.252 -29.5,-84.498 -44.2,-126.75l-22.625,-0.75l0,-0.0028z" id="path7101"/>
        <path fill="url(#linearGradient7520)" d="m1390.52545,676.21299l-17.312,14.656c5.0127,14.396 10.019,28.791 15.031,43.188l0,-6.25l24.25,11.531l-21.969,-63.125z" id="path7103"/>
        <path fill="url(#linearGradient7522)" d="m1536.02545,767.671l22.649,0.72751c-14.712,-42.252 -29.424,-84.505 -44.136,-126.76l-22.649,-0.72753l44.136,126.76l0,0.00002z" id="path7105"/>
        <path fill="#e6e6e6" d="m1491.92545,640.90099s-15.862,7.6685 -26.531,17.844c-10.67,10.175 -16.156,22.875 -16.156,22.875s-12.193,-6.5269 -26.875,-7.875s-31.844,2.4688 -31.844,2.4688l21.969,63.156l97.031,46.156c10.67,-10.175 26.531,-17.844 26.531,-17.844l-44.1,-126.78l-0.025,-0.0008z" id="path7107"/>
        <path fill="url(#linearGradient7524)" d="m1491.92545,640.90099s-15.83,7.6685 -26.5,17.844c-10.67,10.175 -16.156,22.875 -16.156,22.875l31.375,90.156l28.906,13.75c10.67,-10.175 26.531,-17.844 26.531,-17.844l-44.1,-126.79l-0.056,0.009z" id="path7109"/>
        <path fill="url(#linearGradient7526)" d="m1414.02545,673.46299c-12.129,0.22517 -23.469,2.75 -23.469,2.75l21.969,63.156l68.125,32.406l-31.375,-90.156s-12.193,-6.5269 -26.875,-7.875c-2.7528,-0.25277 -5.5758,-0.33321 -8.375,-0.28125l0,0.00025z" id="path7111"/>
        <path fill="#b3b3b3" d="m1536.02545,767.68099s-1.0038,0.46554 -2.6563,1.3438c-1.6525,0.8782 -3.946,2.1551 -6.5937,3.75c-1.3241,0.79745 -2.738,1.6787 -4.1876,2.625c-1.4495,0.94636 -2.9444,1.9562 -4.4374,3.0312c-1.493,1.0751 -2.9832,2.2227 -4.4376,3.4062c-1.4544,1.1836 -2.8851,2.4156 -4.2187,3.6875l11.906,5.6875l37.281,-22.812l-22.656,-0.71875l0.0003,-0.00045z" id="path7113"/>
        <path fill="url(#linearGradient7528)" d="m1480.92545,635.58849s-18.582,6.3383 -26.5,17.844c-7.9182,11.505 -5.1562,28.188 -5.1563,28.188l31.375,90.156l17.844,8.5c0.021,-0.031 0.041,-0.0628 0.062,-0.0937c7.9182,-11.505 26.531,-17.844 26.531,-17.844l-44.156,-126.75l0.0003,-0.0003z" id="path7115"/>
       </g>
      </g>
      <g id="g7119">
       <path fill="#000000" filter="url(#filter3503)" opacity="0.34733" d="m1595.66545,634.65099c-3.3296,0.02616 -6.706,0.77509 -9.9062,2.3438l-86.688,42.5c-11.379,5.5775 -16.046,19.246 -10.469,30.625l39.156,79.906l128.5,-61.156l-39.906,-81.375c-3.9,-8.1788 -12.1,-12.911 -20.6,-12.844l-0.0868,0.0002z" id="path7121"/>
       <path fill="url(#linearGradient7540)" d="m1596.66545,632.49479c-3.3296,0.02616 -6.706,0.77509 -9.9062,2.3438l-86.688,42.5c-11.379,5.5775 -16.077,19.246 -10.5,30.625l39.875,81.281l128.47,-61.156l-40.562,-82.75c-4.0088,-8.1785 -12.179,-12.911 -20.688,-12.844l-0.0008,0.0002z" id="path7123"/>
       <path fill="url(#linearGradient7542)" opacity="0.22519" d="m1612.26545,667.27599c-3.2276,-0.04876 -6.495,0.65268 -9.5624,2.1562l-85.188,41.75c-10.907,5.346 -15.133,18.945 -9.4687,30.5l23.1,46.78l125.2,-59.622l-23.6,-48.188c-4.071,-8.3055 -12.095,-13.25 -20.344,-13.375l-0.1369,-0.0012z" id="path7125"/>
       <path fill="#000000" filter="url(#filter3361)" opacity="0.50382" d="m1623.76545,723.55699c-1.7916,0.09972 -3.5999,0.56681 -5.3124,1.4062c-6.8504,3.3578 -9.6703,11.618 -6.3126,18.469c0.9105,1.8574 2.1805,3.433 3.6876,4.6562l22.5,-10.719c0,-2.0463 -0.4136,-4.1322 -1.375,-6.0938c-2.5184,-5.1378 -7.8127,-8.0179 -13.188,-7.7188l0.0004,0.0002z" id="path7127"/>
       <path fill="#000000" filter="url(#filter3361)" opacity="0.50382" d="m1612.76545,683.86999c-0.4404,0.2016 -0.8755,0.37953 -1.3125,0.59375c-30.225,14.815 -43.782,50.132 -32.125,81l18.188,-8.6562c-7.0224,-20.937 2.3832,-44.361 22.75,-54.344c0.4371,-0.21423 0.8711,-0.4254 1.3125,-0.625l-8.9,-17.962l0.087,-0.00655z" id="path7129"/>
       <path fill="#000000" filter="url(#filter3361)" opacity="0.50382" d="m1597.16545,652.15099c-47.407,23.387 -68.032,79.494 -48.031,127.69l15.469,-7.375c-13.457,-39.346 3.4971,-83.425 40.969,-103.22l-8.5,-17.09l0.093,-0.005z" id="path7131"/>
       <path fill="url(#linearGradient7544)" d="m1623.36545,722.65099c-1.7916,0.09972 -3.5687,0.56681 -5.2813,1.4062c-6.8503,3.3578 -9.7015,11.618 -6.3437,18.469c1.0915,2.2268 2.7121,4.0408 4.625,5.3438l21.531,-10.25c0.2074,-2.4146 -0.1995,-4.9154 -1.3438,-7.25c-2.5183,-5.1378 -7.8127,-8.0179 -13.188,-7.7188l0.0008,-0.0002z" id="path7133"/>
       <path fill="url(#linearGradient7546)" d="m1612.26545,682.93199c-0.4402,0.2016 -0.8755,0.41078 -1.3124,0.625c-30.545,14.972 -44.009,50.84 -31.688,81.938l18.125,-8.625c-7.6628,-21.184 1.686,-45.203 22.375,-55.344c0.4371,-0.21422 0.8712,-0.42539 1.3126,-0.625l-8.8126,-17.969l0.0004,0z" id="path7135"/>
       <path fill="url(#linearGradient7546)" d="m1596.76545,651.21299c-47.723,23.542 -68.336,80.249 -47.656,128.66l11.781,-5.625l3.625,-1.7188c-14.078,-39.591 2.8428,-84.23 40.625,-104.19l-8.375,-17.125l0,-0.0012z" id="path7137"/>
       <path fill="url(#linearGradient7550)" opacity="0.4771" d="m1586.36545,635.801c11.197,-5.4882 24.626,-0.89344 30.115,10.303l26.978,55.04c-27.825,-10.3 -66.185,-7.3721 -102.67,10.513c-13.719,6.7243 -25.919,14.953 -36.288,24.108l-13.742,-28.036c-5.4882,-11.197 -0.8934,-24.626 10.303,-30.115l85.307,-41.814l-0.003,0.001z" id="path7139"/>
      </g>
      <g id="g7141">
       <path fill="#000000" filter="url(#filter6169)" fill-opacity="0.50857" fill-rule="evenodd" d="m1470.06545,700.15099c-28.207,0 -53.025,14.513 -67.438,36.469l118.66,56.469l29.406,-14c-0.9,-43.727 -36.7,-78.94 -80.7,-78.94l0.072,0.002z" id="path7143"/>
       <path fill="#000000" fill-rule="evenodd" d="m1468.96545,698.40099c-28.588,0 -53.679,14.92 -68,37.375l120.41,57.312l28.25,-13.438l0,-0.59375c-0.1,-44.516 -36.2,-80.66 -80.7,-80.66l0.04,0.00475z" id="path7145"/>
       <path fill="#333333" fill-rule="evenodd" d="m1468.96545,749.71099c-8.0827,0 -15.407,3.2669 -20.719,8.5625l49.938,23.781c0.1003,-0.9861 0.1562,-1.9877 0.1562,-3c0,-16.197 -13.178,-29.344 -29.375,-29.344l-0.0002,0.0005z" id="path7147"/>
       <path fill="#000000" fill-rule="evenodd" d="m1468.96545,698.40099c-28.588,0 -53.679,14.92 -68,37.375l1.4063,0.6875c14.062,-21.931 38.624,-36.469 66.594,-36.469c43.653,0 79.094,35.409 79.094,79.062c0,0.45128 -0.024,0.89426 -0.031,1.3438l1.5937,-0.75l0,-0.59375c-0.1,-44.516 -36.2,-80.66 -80.7,-80.66l0.043,0.00445z" id="path7149"/>
       <path fill="url(#radialGradient7552)" fill-rule="evenodd" d="m1509.66545,779.06099c0,2.7804 -0.2504,5.5002 -0.7813,8.125l12.406,5.9062l26.7,-12.69c0.01,-0.44949 0.031,-0.89247 0.031,-1.3438l-38.312,0l-0.0437,0.0026z" id="path7151"/>
       <path fill="url(#radialGradient7554)" fill-rule="evenodd" d="m1468.96545,699.96299c-27.97,0 -52.531,14.565 -66.594,36.5l35.094,16.688c7.4815,-9.0881 18.82,-14.906 31.5,-14.906l0,-38.281l0,-0.001z" id="path7153"/>
       <path fill="url(#radialGradient7556)" fill-rule="evenodd" d="m1468.96545,749.06099c-7.6816,0 -15.363,2.9258 -21.219,8.7812c-0.047,0.0472 -0.078,0.10885 -0.125,0.15625l1.25,0.59375c11.21,-11.011 29.241,-10.946 40.375,0.1875c6.2815,6.2815 9.0487,14.757 8.2813,22.969l1.2812,0.59375c0.9541,-8.7347 -1.9346,-17.81 -8.625,-24.5c-5.8555,-5.8554 -13.537,-8.7812 -21.219,-8.7812l0.0005,-0.00025z" id="path7155"/>
       <path fill="url(#radialGradient7558)" fill-rule="evenodd" d="m1468.96545,755.65099c-5.3105,0 -10.588,1.8175 -14.906,5.4062l38.312,18.219c0.056,-6.063 -2.2218,-12.159 -6.8437,-16.781c-4.5665,-4.5664 -10.572,-6.8438 -16.563,-6.8438l0.0007,-0.0004z" id="path7157"/>
       <path fill="#ffffff" fill-rule="evenodd" opacity="0.74257" d="m1488.06545,759.901c-3.0781,-3.0781 -6.7153,-5.2538 -10.585,-6.54l-0.5394,1.6181c3.6245,1.205 7.0284,3.2528 9.9111,6.1354c3.5116,3.5116 5.778,7.7955 6.8,12.309l1.6663,-0.37563c-1.0906,-4.8189 -3.5035,-9.3981 -7.2527,-13.147l-0.0003,0.00013z" id="path7159"/>
      </g>
     </g>
     <g transform="matrix(1.3061 0 0 1.3061 1521.3 -349.94)" id="g6935">
      <path fill="url(#radialGradient7560)" d="m-104.49471,823.99271l0,96.875c0.45119,4.0533 0.79854,3.649 3.2812,5l95.361,54.492c3.782,1.9859 7.7909,2.8376 12.51,0.13916l92.285,-52.405c6.3295,-3.5457 6.6848,-6.7851 6.5625,-10l0,-94.1l-105,50l-105,-50l0.0003,-0.00116z" id="path6937"/>
      <g id="g6939">
       <g id="g6941">
        <path fill="url(#svg_2)" filter="url(#filter14465)" mask="url(#mask14451)" d="m-26.99471,923.03275l25.5,-49l-62,18.5l36.5,30.5z" id="path6943"/>
        <g mask="url(#mask8359)" id="g6945">
         <g id="g6947">
          <path fill="url(#radialGradient7564)" filter="url(#filter7300)" d="m-0.92471,980.28271l1.0714,9.4286l105.36,-65.34l-101.54,50.72l-3.82,-33.87l6.65,-18.05l-4.86,-16.41l-1.43,-32.77l-0.71429,32.857l3.2143,17.5l-6.7857,16.429l2.8571,39.5l-0.00281,0.0054z" id="path6949"/>
         </g>
        </g>
        <path fill="url(#linearGradient7566)" filter="url(#filter14443)" mask="url(#mask14451)" d="m-0.49471,888.99271l3,37l66,-19l-69,-18z" id="path6951"/>
       </g>
       <path fill="url(#linearGradient7568)" filter="url(#filter8178)" mask="url(#mask8351)" d="m-106.49471,823.99271l0,96.875l0,0.125l0,0.0937c0.23265,2.09 0.39766,3.3726 1.3125,4.5312c0.90752,1.1494 1.847,1.3943 2.9688,2c0.009,0.005 0.0222,-0.005 0.0312,0l101.69,58.13l1,0.5625l1,-0.5625l98.406,-55.906c0.0146,-0.008 0.0167,-0.0231 0.0312,-0.0312c3.3512,-1.8844 5.3787,-3.8201 6.4688,-5.9062c1.0825,-2.0717 1.1551,-4.117 1.0938,-5.8125c-0.0007,-0.0192 0.00073,-0.0434 0,-0.0625l0,-94.03l-4,0l0,94.094l0,0.0312l0,0.0625c0.0574,1.5084 0.01,2.6603 -0.625,3.875c-0.63468,1.2147 -1.9541,2.6275 -4.9062,4.2812l0,0.0312l-0.0312,0l-97.44,58.81l-100.72,-61.07l-0.0312,0c-1.3493,-0.73422 -1.8202,-0.97849 -1.8125,-0.96875c0.008,0.01 -0.21896,-0.53672 -0.4375,-2.5l0,-96.65l-4,0l0.0013,-0.00285z" id="path6953"/>
      </g>
      <path fill="#726038" d="m-45.56611,931.85269l45,-55l-105,-50l-45,45l105,60z" id="path6955"/>
      <path fill="#a38a50" d="m49.43389,926.47269l-50,-49.62l1.07,-2.86l103.93,-47.14l50,40l-105,59.615l0,0.005z" id="path6957"/>
      <path fill="url(#radialGradient7570)" d="m-44.49471,928.99271l45,-55l-105,-50l-46.25,45.25l106.25,59.75z" id="path6959"/>
      <path fill="#decca2" d="m51.04529,925.55271c-0.88844,0.50442 -1.3114,0.12234 -0.94224,-0.85484l0.53729,-0.30369c-0.24589,0.6508 0.0354,0.90592 0.62712,0.57046c0.59045,-0.33474 1.2667,-1.1311 1.5116,-1.7793c0.3673,-0.9723 1.3785,-2.1619 2.2561,-2.6557c0.87475,-0.49223 1.2859,-0.10657 0.92084,0.86002c-0.24338,0.64443 0.0307,0.89964 0.61099,0.57064c0.5791,-0.32831 1.2441,-1.1143 1.4865,-1.7562c0.36358,-0.96282 1.3581,-2.1371 2.2188,-2.6214c0.85802,-0.48281 1.2586,-0.0971 0.89725,0.86008c-0.24094,0.63817 0.0261,0.89342 0.59536,0.57069c0.56806,-0.32204 1.2222,-1.098 1.4622,-1.7337c0.35994,-0.95352 1.3382,-2.1128 2.1826,-2.5879c0.84175,-0.47365 1.2322,-0.0881 0.87437,0.85998c-0.23853,0.63205 0.0217,0.88729 0.58022,0.57066c0.55734,-0.31597 1.2009,-1.0821 1.4385,-1.7117c0.35637,-0.9444 1.3188,-2.089 2.1473,-2.5552c0.82596,-0.46476 1.2065,-0.0793 0.85221,0.85973c-0.23618,0.62604 0.0175,0.88122 0.56552,0.57051c0.54692,-0.31006 1.1802,-1.0665 1.4154,-1.6902c0.35286,-0.93545 1.2999,-2.0657 2.113,-2.5232c0.81059,-0.45612 1.1815,-0.0708 0.83071,0.85934c-0.23388,0.62014 0.0134,0.87522 0.55128,0.57028c0.53679,-0.30432 1.16,-1.0514 1.393,-1.6692c0.34943,-0.92668 1.2815,-2.0429 2.0796,-2.492c0.79565,-0.44771 1.1572,-0.0627 0.80985,0.85881c-0.23161,0.61436 0.009,0.8693 0.53746,0.56996c0.52694,-0.29874 1.1404,-1.0367 1.3711,-1.6487c0.34606,-0.91806 1.2635,-2.0206 2.047,-2.4615c0.78112,-0.43953 1.1337,-0.0548 0.78962,0.85816c-0.22939,0.60868 0.006,0.86344 0.52406,0.56955c0.51735,-0.2933 1.1212,-1.0223 1.3498,-1.6287c0.34275,-0.9096 1.2459,-1.9988 2.0152,-2.4317c0.76698,-0.43158 1.1108,-0.0472 0.76998,0.8574c-0.22721,0.60309 0.002,0.85765 0.51105,0.56906c0.50803,-0.28802 1.1026,-1.0082 1.329,-1.6091c0.33951,-0.9013 1.2288,-1.9774 1.9843,-2.4026c0.75322,-0.42384 1.0885,-0.0399 0.75092,0.85651c-0.22507,0.59762 -0.002,0.85193 0.49842,0.5685c0.49896,-0.28287 1.0845,-0.99451 1.3087,-1.59c0.33633,-0.89314 1.2121,-1.9565 1.9542,-2.3741c0.73984,-0.4163 1.0669,-0.0328 0.73242,0.85553c-0.22298,0.59225 -0.005,0.84628 0.48616,0.56787c0.49012,-0.27786 1.0668,-0.98112 1.289,-1.5712c0.33322,-0.88514 1.1958,-1.936 1.9248,-2.3462c0.7268,-0.40897 1.0458,-0.026 0.71446,0.85445c-0.22093,0.58696 -0.008,0.84069 0.47424,0.56717c0.48153,-0.27299 1.0496,-0.96806 1.2698,-1.5529c0.33014,-0.87727 1.1799,-1.916 1.8961,-2.319c0.71411,-0.40183 1.0253,-0.0193 0.697,0.85327c-0.2189,0.58178 -0.0114,0.83517 0.46268,0.56641c0.47315,-0.26824 1.0329,-0.95529 1.251,-1.535c0.32714,-0.86955 1.1643,-1.8963 1.8681,-2.2923c0.70174,-0.39487 1.0054,-0.013 0.68004,0.852c-0.21692,0.57668 -0.0145,0.82971 0.45144,0.56559c0.46499,-0.26361 1.0165,-0.94282 1.2326,-1.5175c0.32418,-0.86196 1.1491,-1.877 1.8408,-2.2662c0.6897,-0.38809 0.986,-0.007 0.66356,0.85065c-0.21497,0.57168 -0.0174,0.82432 0.44052,0.56472c0.45704,-0.25911 1.0006,-0.93064 1.2148,-1.5003c0.32128,-0.85451 1.1343,-1.8581 1.8142,-2.2407c0.67796,-0.38149 0.96711,-0.00086 0.64754,0.84923c-0.21306,0.56675 -0.0202,0.81898 0.42989,0.56379c0.4493,-0.25472 0.98501,-0.91874 1.1973,-1.4836c0.31844,-0.84716 1.1198,-1.8396 1.7882,-2.2157c0.66653,-0.37505 0.94872,0.005 0.63197,0.84773c-0.21117,0.56191 -0.023,0.81371 0.41957,0.56281c0.44175,-0.25044 0.96984,-0.9071 1.1803,-1.4671c0.31564,-0.83996 1.1056,-1.8214 1.7628,-2.1912c0.65537,-0.36878 0.9308,0.0105 0.61682,0.84615c-0.20932,0.55716 -0.0257,0.8085 0.40953,0.56179c0.43438,-0.24626 0.95504,-0.89572 1.1636,-1.451c0.31289,-0.83288 1.0917,-1.8036 1.738,-2.1672c0.6445,-0.36265 0.91335,0.0158 0.6021,0.84452c-0.20752,0.55248 -0.0282,0.80335 0.39976,0.56072c0.4272,-0.24219 0.94058,-0.88459 1.1474,-1.4352c0.31018,-0.82591 1.0782,-1.7861 1.7138,-2.1438c0.63389,-0.35669 0.89635,0.021 0.58777,0.84282c-0.20573,0.54788 -0.0307,0.79826 0.39027,0.55961c0.42019,-0.23822 0.92647,-0.8737 1.1315,-1.4198c0.30752,-0.81906 1.0649,-1.7689 1.6901,-2.1207c0.62355,-0.35087 0.87978,0.026 0.57383,0.84106c-0.20397,0.54336 -0.0331,0.79323 0.38102,0.55846c0.41336,-0.23434 0.91271,-0.86305 1.116,-1.4046c0.30491,-0.81232 1.0519,-1.7521 1.667,-2.0982c0.61345,-0.34518 0.86362,0.0309 0.56026,0.83925c-0.20225,0.53891 -0.0354,0.78826 0.37202,0.55728c0.40669,-0.23056 0.89926,-0.85263 1.1008,-1.3898c0.30234,-0.8057 1.0392,-1.7356 1.6444,-2.0761c0.60359,-0.33964 0.84787,0.0356 0.54705,0.83739c-0.20056,0.53453 -0.0376,0.78334 0.36326,0.55606c0.40019,-0.22687 0.88612,-0.84243 1.086,-1.3752c0.29981,-0.79917 1.0268,-1.7193 1.6224,-2.0544c0.59398,-0.33423 0.83251,0.0402 0.53419,0.83548c-0.19888,0.53023 -0.0398,0.77848 0.35474,0.55481c0.39383,-0.22327 0.87329,-0.83245 1.0715,-1.361c0.29733,-0.79275 1.0146,-1.7034 1.6008,-2.0332c0.58459,-0.32895 0.81753,0.0446 0.52167,0.83352l-0.35234,0.19915c0.19741,-0.52639 0.0417,-0.77519 -0.34833,-0.55538c-0.39074,0.2202 -0.86856,0.82708 -1.0666,1.3552c-0.2971,0.79217 -1.0157,1.7056 -1.6064,2.041c-0.5923,0.33628 -0.83154,-0.0358 -0.53295,-0.83176c0.19904,-0.53064 0.0396,-0.78002 -0.3567,-0.55668c-0.39702,0.22374 -0.88129,0.83696 -1.081,1.3693c-0.29958,0.79857 -1.0279,1.7216 -1.6281,2.0624c-0.60187,0.34171 -0.84686,-0.0312 -0.54577,-0.83362c0.20072,-0.53495 0.0375,-0.78491 -0.36528,-0.55795c-0.40346,0.22737 -0.89432,0.84705 -1.0957,1.3838c-0.3021,0.80508 -1.0403,1.7378 -1.6504,2.0842c-0.61166,0.34728 -0.86256,-0.0264 -0.55892,-0.83544c0.20241,-0.53933 0.0352,-0.78984 -0.3741,-0.55917c-0.41006,0.23108 -0.90765,0.85736 -1.1108,1.3985c-0.30467,0.8117 -1.0531,1.7544 -1.6731,2.1064c-0.6217,0.35298 -0.87867,-0.0215 -0.57244,-0.8372c0.20414,-0.54379 0.0329,-0.79484 -0.38316,-0.56037c-0.41682,0.23489 -0.92131,0.86789 -1.1262,1.4135c-0.30728,0.81843 -1.0661,1.7713 -1.6963,2.1291c-0.63199,0.35883 -0.89519,-0.0164 -0.58633,-0.8389c0.2059,-0.54832 0.0305,-0.7999 -0.39247,-0.56154c-0.42374,0.23879 -0.9353,0.87867 -1.1419,1.4288c-0.30992,0.82527 -1.0793,1.7885 -1.7201,2.1523c-0.64254,0.36481 -0.91215,-0.0111 -0.60061,-0.84056c0.20769,-0.55292 0.028,-0.80501 -0.40204,-0.56266c-0.43083,0.2428 -0.94962,0.88968 -1.158,1.4445c-0.31263,0.83222 -1.0929,1.806 -1.7445,2.176c-0.65335,0.37095 -0.92955,-0.006 -0.61528,-0.84215c0.20951,-0.55761 0.0254,-0.81018 -0.41187,-0.56374c-0.43812,0.2469 -0.9643,0.90094 -1.1745,1.4604c-0.31538,0.8393 -1.1068,1.8239 -1.7694,2.2001c-0.66443,0.37725 -0.94741,-0.00007 -0.63036,-0.84367c0.21135,-0.56237 0.0228,-0.81541 -0.42199,-0.56478c-0.44558,0.25111 -0.97934,0.91245 -1.1914,1.4768c-0.31818,0.8465 -1.121,1.8421 -1.7949,2.2248c-0.67581,0.3837 -0.96575,0.006 -0.64588,-0.84512c0.21324,-0.56722 0.02,-0.82071 -0.43239,-0.56578c-0.45323,0.25542 -0.99476,0.92423 -1.2088,1.4934c-0.32101,0.85381 -1.1356,1.8607 -1.8211,2.2499c-0.68748,0.39033 -0.98458,0.0118 -0.66183,-0.84649c0.21516,-0.57215 0.0171,-0.82607 -0.44308,-0.56672c-0.4611,0.25985 -1.0106,0.93628 -1.2265,1.5104c-0.32391,0.86126 -1.1504,1.8797 -1.8479,2.2756c-0.69946,0.39713 -1.0039,0.018 -0.67825,-0.84779c0.21711,-0.57716 0.0142,-0.83148 -0.45409,-0.5676c-0.46916,0.26439 -1.0268,0.94861 -1.2447,1.5278c-0.32687,0.86884 -1.1657,1.899 -1.8753,2.3019c-0.71174,0.4041 -1.0238,0.0244 -0.69514,-0.84901c0.2191,-0.58227 0.0111,-0.83696 -0.46541,-0.56843c-0.47743,0.26905 -1.0434,0.96123 -1.2633,1.5456c-0.32987,0.87655 -1.1812,1.9187 -1.9035,2.3288c-0.72436,0.41126 -1.0442,0.0311 -0.71252,-0.85013c0.22112,-0.58747 0.008,-0.84252 -0.47707,-0.56921c-0.48593,0.27384 -1.0605,0.97415 -1.2824,1.5637c-0.33292,0.8844 -1.1972,1.9388 -1.9323,2.3562c-0.73731,0.41862 -1.0652,0.038 -0.73042,-0.85115c0.22318,-0.59276 0.005,-0.84814 -0.48907,-0.56993c-0.49465,0.27876 -1.078,0.98739 -1.302,1.5823c-0.33604,0.89239 -1.2135,1.9594 -1.9619,2.3843c-0.75061,0.42617 -1.0868,0.0452 -0.74884,-0.85209c0.22528,-0.59815 0.001,-0.85382 -0.50143,-0.57057c-0.50361,0.28381 -1.0959,1.0009 -1.322,1.6013c-0.33922,0.90054 -1.2303,1.9804 -1.9922,2.413c-0.76428,0.43393 -1.109,0.0526 -0.76781,-0.85291c0.22742,-0.60363 -0.002,-0.85956 -0.51416,-0.57114c-0.51282,0.289 -1.1144,1.0148 -1.3426,1.6207c-0.34245,0.90882 -1.2474,2.0018 -2.0234,2.4424c-0.77832,0.44191 -1.1318,0.0602 -0.78736,-0.85362c0.2296,-0.60921 -0.006,-0.86538 -0.52727,-0.57164c-0.52229,0.29434 -1.1333,1.0291 -1.3638,1.6405c-0.34575,0.91727 -1.265,2.0237 -2.0553,2.4724c-0.79276,0.4501 -1.1553,0.0682 -0.80751,-0.85422c0.23182,-0.6149 -0.01,-0.87126 -0.54078,-0.57206c-0.53202,0.29982 -1.1528,1.0436 -1.3855,1.6608c-0.3491,0.92587 -1.283,2.046 -2.0881,2.5031c-0.8076,0.45852 -1.1794,0.0764 -0.82827,-0.85468c0.23409,-0.62071 -0.0138,-0.87722 -0.55471,-0.5724c-0.54202,0.30545 -1.1727,1.0586 -1.4078,1.6816c-0.35254,0.93463 -1.3014,2.0688 -2.1218,2.5346c-0.82285,0.46719 -1.2043,0.0849 -0.84967,-0.85502c0.23641,-0.62661 -0.0179,-0.88324 -0.56907,-0.57264c-0.55231,0.31125 -1.1933,1.0739 -1.4306,1.7029c-0.35603,0.94356 -1.3204,2.0922 -2.1563,2.5668c-0.83856,0.4761 -1.2299,0.0938 -0.87175,-0.8552c0.23876,-0.63264 -0.0222,-0.88935 -0.58388,-0.5728c-0.56289,0.31722 -1.2144,1.0897 -1.4541,1.7247c-0.3596,0.95266 -1.3398,2.116 -2.1918,2.5997c-0.8547,0.48528 -1.2563,0.10297 -0.89451,-0.85524c0.24117,-0.63877 -0.0266,-0.89551 -0.59915,-0.57285c-0.57378,0.32335 -1.2361,1.1058 -1.4782,1.7471c-0.36323,0.96194 -1.3598,2.1404 -2.2283,2.6335c-0.87133,0.49471 -1.2834,0.11247 -0.918,-0.85512c0.24362,-0.64503 -0.0312,-0.90176 -0.61491,-0.5728c-0.58499,0.32967 -1.2584,1.1224 -1.503,1.7699c-0.36695,0.9714 -1.3802,2.1653 -2.2658,2.6681" id="path6961"/>
      <path fill="url(#linearGradient7572)" d="m50.50529,923.61271l-50,-49.62l105,-50l50,40l-105,59.615l0,0.005z" id="path6963"/>
      <path fill="none" stroke-width="3" stroke-linecap="round" stroke="url(#radialGradient7574)" filter="url(#filter7863)" mask="url(#mask7935)" d="m0.50529,873.99271l105,-50l-105,50z" id="path6965"/>
      <path fill="none" stroke-width="4" stroke="url(#radialGradient7576)" filter="url(#filter7881)" mask="url(#mask7941)" d="m0.50529,873.99271l-105,-50l105,50z" id="path6967"/>
      <g id="g6969">
       <path fill="url(#radialGradient7578)" d="m-44.49471,928.99271l45,-55l-105,-50l-45,45l105,60z" id="path6971"/>
       <path fill="url(#svg_1)" d="m-46.44471,930.50807c0.88844,0.50019 1.3114,0.1161 0.94224,-0.85932l-0.53729,-0.30113c0.24589,0.64963 -0.0354,0.90609 -0.62712,0.57344c-0.59045,-0.33193 -1.2667,-1.12508 -1.5116,-1.77211c-0.3673,-0.97055 -1.3785,-2.15534 -2.2561,-2.64497c-0.87475,-0.48807 -1.2859,-0.10045 -0.92084,0.8644c0.24338,0.64327 -0.0307,0.89979 -0.61099,0.57355c-0.5791,-0.32556 -1.2441,-1.10838 -1.4865,-1.74913c-0.36358,-0.96109 -1.3581,-2.13064 -2.2188,-2.61085c-0.85802,-0.47873 -1.2586,-0.09111 -0.89725,0.86435c0.24094,0.63702 -0.0261,0.89354 -0.59536,0.57352c-0.56806,-0.31934 -1.2222,-1.09219 -1.4622,-1.72675c-0.35994,-0.95181 -1.3382,-2.10644 -2.1826,-2.57752c-0.84175,-0.46965 -1.2322,-0.08224 -0.87437,0.86414c0.23853,0.63092 -0.0217,0.88739 -0.58022,0.57342c-0.55734,-0.31332 -1.2009,-1.07639 -1.4385,-1.70486c-0.35637,-0.94271 -1.3188,-2.08273 -2.1473,-2.54499c-0.82596,-0.46083 -1.2065,-0.07356 -0.85221,0.86378c0.23618,0.62492 -0.0175,0.8813 -0.56552,0.5732c-0.54692,-0.30746 -1.1802,-1.06089 -1.4154,-1.68347c-0.35286,-0.93377 -1.2999,-2.05952 -2.113,-2.51315c-0.81059,-0.45226 -1.1815,-0.06518 -0.83071,0.86329c0.23388,0.61903 -0.0134,0.87528 -0.55128,0.5729c-0.53679,-0.30177 -1.16,-1.04588 -1.393,-1.66257c-0.34943,-0.92502 -1.2815,-2.03681 -2.0796,-2.48211c-0.79565,-0.44393 -1.1572,-0.0572 -0.80985,0.86266c0.23161,0.61326 -0.009,0.86934 -0.53746,0.57252c-0.52694,-0.29623 -1.1404,-1.03128 -1.3711,-1.64218c-0.34606,-0.91641 -1.2635,-2.01459 -2.047,-2.45176c-0.78112,-0.43581 -1.1337,-0.04941 -0.78962,0.86192c0.22939,0.60759 -0.006,0.86347 -0.52406,0.57204c-0.51735,-0.29084 -1.1212,-1.01697 -1.3498,-1.62228c-0.34275,-0.90797 -1.2459,-1.99287 -2.0152,-2.42212c-0.76698,-0.42793 -1.1108,-0.04192 -0.76998,0.86106c0.22721,0.60201 -0.002,0.85766 -0.51105,0.57149c-0.50803,-0.2856 -1.1026,-1.00296 -1.329,-1.60278c-0.33951,-0.89969 -1.2288,-1.97156 -1.9843,-2.39316c-0.75322,-0.42026 -1.0885,-0.03472 -0.75092,0.86008c0.22507,0.59655 0.002,0.85192 -0.49842,0.57087c-0.49896,-0.2805 -1.0845,-0.98935 -1.3087,-1.58378c-0.33633,-0.89154 -1.2121,-1.95074 -1.9542,-2.36481c-0.73984,-0.41278 -1.0669,-0.02773 -0.73242,0.85901c0.22298,0.59119 0.005,0.84626 -0.48616,0.57018c-0.49012,-0.27553 -1.0668,-0.97605 -1.289,-1.56507c-0.33322,-0.88356 -1.1958,-1.93031 -1.9248,-2.33705c-0.7268,-0.40551 -1.0458,-0.02103 -0.71446,0.85785c0.22093,0.58591 0.008,0.84065 -0.47424,0.56943c-0.48153,-0.2707 -1.0496,-0.96307 -1.2698,-1.54686c-0.33014,-0.8757 -1.1799,-1.91039 -1.8961,-2.30998c-0.71411,-0.39843 -1.0253,-0.01442 -0.697,0.85659c0.2189,0.58074 0.0114,0.83512 -0.46268,0.56861c-0.47315,-0.26599 -1.0329,-0.95038 -1.251,-1.52905c-0.32714,-0.86799 -1.1643,-1.89076 -1.8681,-2.28342c-0.70174,-0.39153 -1.0054,-0.00822 -0.68004,0.85523c0.21692,0.57565 0.0145,0.82964 -0.45144,0.56774c-0.46499,-0.2614 -1.0165,-0.93799 -1.2326,-1.51164c-0.32418,-0.86042 -1.1491,-1.87153 -1.8408,-2.25744c-0.6897,-0.38481 -0.986,-0.00231 -0.66356,0.85381c0.21497,0.57066 0.0174,0.82424 -0.44052,0.56682c-0.45704,-0.25694 -1.0006,-0.92588 -1.2148,-1.49452c-0.32128,-0.85298 -1.1343,-1.85271 -1.8142,-2.23207c-0.67796,-0.37827 -0.96711,0.00374 -0.64754,0.85231c0.21306,0.56574 0.0202,0.81888 -0.42989,0.56583c-0.4493,-0.25258 -0.98501,-0.91406 -1.1973,-1.47791c-0.31844,-0.84565 -1.1198,-1.83427 -1.7882,-2.2072c-0.66653,-0.37188 -0.94872,0.00951 -0.63197,0.85074c0.21117,0.56091 0.023,0.8136 -0.41957,0.56481c-0.44175,-0.24834 -0.96984,-0.90249 -1.1803,-1.46149c-0.31564,-0.83846 -1.1056,-1.81614 -1.7628,-2.18282c-0.65537,-0.36566 -0.9308,0.01493 -0.61682,0.84908c0.20932,0.55616 0.0257,0.80838 -0.40953,0.56374c-0.43438,-0.24419 -0.95504,-0.89118 -1.1636,-1.44547c-0.31289,-0.83139 -1.0917,-1.79841 -1.738,-2.15893c-0.6445,-0.35958 -0.91335,0.02014 -0.6021,0.84738c0.20752,0.55149 0.0282,0.80322 -0.39976,0.56262c-0.4272,-0.24016 -0.94058,-0.88012 -1.1474,-1.42974c-0.31018,-0.82443 -1.0782,-1.78097 -1.7138,-2.13565c-0.63389,-0.35368 -0.89635,0.02526 -0.58777,0.84562c0.20573,0.5469 0.0307,0.79811 -0.39027,0.56147c-0.42019,-0.23622 -0.92647,-0.86929 -1.1315,-1.41442c-0.30752,-0.8176 -1.0649,-1.76384 -1.6901,-2.11266c-0.62355,-0.3479 -0.87978,0.03018 -0.57383,0.84379c0.20397,0.54239 0.0331,0.79307 -0.38102,0.56027c-0.41336,-0.23237 -0.91271,-0.85871 -1.116,-1.39929c-0.30491,-0.81087 -1.0519,-1.7471 -1.667,-2.09027c-0.61345,-0.34226 -0.86362,0.03501 -0.56026,0.84191c0.20225,0.53795 0.0354,0.78809 -0.37202,0.55905c-0.40669,-0.22863 -0.89926,-0.84835 -1.1008,-1.38456c-0.30234,-0.80426 -1.0392,-1.73066 -1.6444,-2.06828c-0.60359,-0.33677 -0.84787,0.03963 -0.54705,0.83999c0.20056,0.53358 0.0376,0.78316 -0.36326,0.55779c-0.40019,-0.22497 -0.88612,-0.83822 -1.086,-1.37003c-0.29981,-0.79774 -1.0268,-1.71442 -1.6224,-2.04668c-0.59398,-0.3314 -0.83251,0.04416 -0.53419,0.83802c0.19888,0.52928 0.0398,0.77829 -0.35474,0.5565c-0.39383,-0.2214 -0.87329,-0.8283 -1.0715,-1.3559c-0.29733,-0.79134 -1.0146,-1.69857 -1.6008,-2.02559c-0.58459,-0.32617 -0.81753,0.04849 -0.52167,0.836l0.35234,0.19747c-0.19741,-0.52545 -0.0417,-0.77499 0.34833,-0.55704c0.39074,0.21834 0.86856,0.82295 1.0666,1.35013c0.2971,0.79076 1.0157,1.70077 1.6064,2.03336c0.5923,0.33346 0.83154,-0.03975 0.53295,-0.83429c-0.19904,-0.52969 -0.0396,-0.77983 0.3567,-0.55838c0.39702,0.22185 0.88129,0.83277 1.081,1.36416c0.29958,0.79715 1.0279,1.71671 1.6281,2.05466c0.60187,0.33885 0.84686,-0.03523 0.54577,-0.83622c-0.20072,-0.534 -0.0375,-0.78473 0.36528,-0.55969c0.40346,0.22545 0.89432,0.8428 1.0957,1.37859c0.3021,0.80364 1.0403,1.73285 1.6504,2.07635c0.61166,0.34437 0.86256,-0.0305 0.55892,-0.8381c-0.20241,-0.53837 -0.0352,-0.78967 0.3741,-0.56095c0.41006,0.22913 0.90765,0.85304 1.1108,1.39322c0.30467,0.81025 1.0531,1.74939 1.6731,2.09844c0.6217,0.35002 0.87867,-0.02568 0.57244,-0.83992c-0.20414,-0.54282 -0.0329,-0.79468 0.38316,-0.56219c0.41682,0.23291 0.92131,0.86351 1.1262,1.40814c0.30728,0.81697 1.0661,1.76623 1.6963,2.12103c0.63199,0.35582 0.89519,-0.02066 0.58633,-0.84169c-0.2059,-0.54734 -0.0305,-0.79975 0.39247,-0.56341c0.42374,0.23677 0.9353,0.87422 1.1419,1.42337c0.30992,0.8238 1.0793,1.78337 1.7201,2.14412c0.64254,0.36175 0.91215,-0.01544 0.60061,-0.84342c-0.20769,-0.55193 -0.028,-0.80488 0.40204,-0.56457c0.43083,0.24075 0.94962,0.88516 1.158,1.43899c0.31263,0.83073 1.0929,1.8008 1.7445,2.1677c0.65335,0.36784 0.92955,-0.01042 0.61528,-0.84508c-0.20951,-0.55661 -0.0254,-0.81006 0.41187,-0.5657c0.43812,0.24482 0.9643,0.89635 1.1745,1.45481c0.31538,0.8378 1.1068,1.81864 1.7694,2.19168c0.66443,0.37409 0.94741,-0.00458 0.63036,-0.84667c-0.21135,-0.56136 -0.0228,-0.8153 0.42199,-0.56679c0.44558,0.24899 0.97934,0.90779 1.1914,1.47113c0.31818,0.84499 1.121,1.83677 1.7949,2.21626c0.67581,0.38049 0.96575,0.00141 0.64588,-0.84819c-0.21324,-0.56621 -0.02,-0.82061 0.43239,-0.56784c0.45323,0.25326 0.99476,0.9195 1.2088,1.48765c0.32101,0.85228 1.1356,1.8553 1.8211,2.24124c0.68748,0.38706 0.98458,0.00712 0.66183,-0.84964c-0.21516,-0.57113 -0.0171,-0.82599 0.44308,-0.56883c0.4611,0.25766 1.0106,0.93147 1.2265,1.50457c0.32391,0.85972 1.1504,1.87423 1.8479,2.26681c0.69946,0.3938 1.0039,0.01323 0.67825,-0.85102c-0.21711,-0.57613 -0.0142,-0.83141 0.45409,-0.56976c0.46916,0.26216 1.0268,0.94373 1.2447,1.52188c0.32687,0.86729 1.1657,1.89346 1.8753,2.29298c0.71174,0.40071 1.0238,0.01953 0.69514,-0.85232c-0.2191,-0.58123 -0.0111,-0.83691 0.46541,-0.57064c0.47743,0.26678 1.0434,0.95627 1.2633,1.53959c0.32987,0.87498 1.1812,1.91308 1.9035,2.31975c0.72436,0.40781 1.0442,0.02613 0.71252,-0.85352c-0.22112,-0.58642 -0.008,-0.84248 0.47707,-0.57148c0.48593,0.27153 1.0605,0.96911 1.2824,1.5576c0.33292,0.88282 1.1972,1.93311 1.9323,2.34701c0.73731,0.41511 1.0652,0.03293 0.73042,-0.85462c-0.22318,-0.5917 -0.005,-0.84812 0.48907,-0.57226c0.49465,0.27641 1.078,0.98226 1.302,1.57611c0.33604,0.89079 1.2135,1.95363 1.9619,2.37497c0.75061,0.4226 1.0868,0.04003 0.74884,-0.85565c-0.22528,-0.59708 -0.001,-0.85382 0.50143,-0.57295c0.50361,0.28141 1.0959,0.99569 1.322,1.59501c0.33922,0.89893 1.2303,1.97455 1.9922,2.40352c0.76428,0.4303 1.109,0.04733 0.76781,-0.85656c-0.22742,-0.60255 0.002,-0.85957 0.51416,-0.57359c0.51282,0.28656 1.1144,1.0095 1.3426,1.61431c0.34245,0.90719 1.2474,1.99587 2.0234,2.43278c0.77832,0.43821 1.1318,0.05482 0.78736,-0.85736c-0.2296,-0.60812 0.006,-0.86541 0.52727,-0.57415c0.52229,0.29186 1.1333,1.02371 1.3638,1.63401c0.34575,0.91563 1.265,2.01768 2.0553,2.46262c0.79276,0.44633 1.1553,0.06271 0.80751,-0.85806c-0.23182,-0.6138 0.01,-0.87131 0.54078,-0.57463c0.53202,0.29729 1.1528,1.03812 1.3855,1.65421c0.3491,0.92421 1.283,2.0399 2.0881,2.49317c0.8076,0.45468 1.1794,0.07079 0.82827,-0.85862c-0.23409,-0.6196 0.0138,-0.87729 0.55471,-0.57504c0.54202,0.30287 1.1727,1.05302 1.4078,1.6749c0.35254,0.93295 1.3014,2.06261 2.1218,2.52451c0.82285,0.46328 1.2043,0.07917 0.84967,-0.85906c-0.23641,-0.62549 0.0179,-0.88333 0.56907,-0.57535c0.55231,0.30862 1.1933,1.06822 1.4306,1.6961c0.35603,0.94187 1.3204,2.08592 2.1563,2.55654c0.83856,0.47211 1.2299,0.08795 0.87175,-0.85935c-0.23876,-0.6315 0.0222,-0.88946 0.58388,-0.57558c0.56289,0.31454 1.2144,1.08392 1.4541,1.71778c0.3596,0.95095 1.3398,2.10963 2.1918,2.58928c0.8547,0.48121 1.2563,0.09699 0.89451,-0.85949c-0.24117,-0.63762 0.0266,-0.89564 0.59915,-0.5757c0.57378,0.32062 1.2361,1.09992 1.4782,1.74007c0.36323,0.96021 1.3598,2.13393 2.2283,2.6229c0.87133,0.49057 1.2834,0.10637 0.918,-0.85949c-0.24362,-0.64387 0.0312,-0.90191 0.61491,-0.57572c0.58499,0.32689 1.2584,1.11641 1.503,1.76275c0.36695,0.96965 1.3802,2.15874 2.2658,2.65732" id="path6973"/>
      </g>
      <g id="g6975">
       <path fill="url(#radialGradient7582)" d="m50.50529,923.61271l-50,-49.62l105,-50l50,40l-105,59.615l0,0.005z" id="path6977"/>
       <path fill="#ceb476" d="m0.04529,875.26271l50.058,49.438l0.53729,-0.30369l-50.373,-49.723l-0.22217,0.58807" id="path6979"/>
      </g>
     </g>
    </g>
   </g>
  </g>
 </g>
</svg>